<svg height="512" viewBox="0 0 48 48" width="512" xmlns="http://www.w3.org/2000/svg"><g id="Dining_Table" data-name="Dining Table"><path d="m22 22v15.465a1 1 0 0 1 -.445.832l-2.11 1.403a1 1 0 0 0 -.445.832v.468a1 1 0 0 0 1 1h8a1 1 0 0 0 1-1v-.465a1 1 0 0 0 -.445-.832l-2.11-1.403a1 1 0 0 1 -.445-.835v-15.465a1 1 0 0 0 -1-1h-2a1 1 0 0 0 -1 1z" fill="#c6512b"/><path d="m26 6h-4a1 1 0 0 0 0 2h1v2a1 1 0 0 0 2 0v-2h1a1 1 0 0 0 0-2z" fill="#8fa5a5"/><path d="m33 20h-18a1 1 0 0 1 -1-1 10 10 0 0 1 20 0 1 1 0 0 1 -1 1z" fill="#d4d8d8"/><path d="m37 23h-27a2 2 0 0 1 -2-2v-1a2 2 0 0 1 2-2h27a2 2 0 0 1 2 2v1a2 2 0 0 1 -2 2z" fill="#e67244"/><path d="m18.444 15.738a1 1 0 0 1 -.793-1.609 8.036 8.036 0 0 1 4.617-2.941 1 1 0 1 1 .433 1.953 6.026 6.026 0 0 0 -3.462 2.205 1 1 0 0 1 -.795.392z" fill="#eaeff0"/><path d="m32.106 42a1 1 0 0 0 .97-.758l2.364-9.5a1 1 0 0 0 -1.941-.484l-2.365 9.5a1 1 0 0 0 .73 1.212.961.961 0 0 0 .242.03z" fill="#c6512b"/><path d="m45.1 42a1.018 1.018 0 0 0 .218-.024 1 1 0 0 0 .76-1.193l-2-9a1 1 0 0 0 -1.953.434l2 9a1 1 0 0 0 .975.783z" fill="#c6512b"/><path d="m31.421 32.227a1.993 1.993 0 0 1 -.357-1.727l.285-1.106a2.99 2.99 0 0 1 2.894-2.25h6.164l2.593-9.663a2 2 0 0 1 1.921-1.481h1.086a2 2 0 0 1 1.976 2.264l-1.608 12.136a3 3 0 0 1 -2.963 2.6h-10.412a1.98 1.98 0 0 1 -1.579-.773z" fill="#ffd188"/><path d="m15.9 42a1 1 0 0 1 -.97-.758l-2.364-9.5a1 1 0 0 1 1.941-.484l2.364 9.5a1 1 0 0 1 -.729 1.212.961.961 0 0 1 -.242.03z" fill="#c6512b"/><path d="m2.9 42a1 1 0 0 1 -.977-1.217l2-9a1 1 0 0 1 1.953.434l-2 9a1 1 0 0 1 -.976.783z" fill="#c6512b"/><path d="m15.005 33h-10.416a3 3 0 0 1 -2.963-2.6l-1.608-12.136a2 2 0 0 1 1.976-2.264h1.086a2 2 0 0 1 1.926 1.481l2.587 9.662h6.164a2.988 2.988 0 0 1 2.893 2.25l.286 1.106a2 2 0 0 1 -1.931 2.501z" fill="#ffd188"/></g></svg>